<mxfile host="app.diagrams.net" modified="2023-09-01T01:25:59.409Z" agent="Mozilla/5.0 (Windows NT 10.0; Win64; x64) AppleWebKit/537.36 (KHTML, like Gecko) Chrome/116.0.0.0 Safari/537.36 Edg/116.0.1938.62" etag="WbB4naKIf3L-U_nDLf-2" version="21.6.8" type="github">
  <diagram id="C5RBs43oDa-KdzZeNtuy" name="Page-1">
    <mxGraphModel dx="1794" dy="905" grid="1" gridSize="10" guides="1" tooltips="1" connect="1" arrows="1" fold="1" page="1" pageScale="1" pageWidth="827" pageHeight="1169" math="0" shadow="0">
      <root>
        <mxCell id="WIyWlLk6GJQsqaUBKTNV-0" />
        <mxCell id="WIyWlLk6GJQsqaUBKTNV-1" parent="WIyWlLk6GJQsqaUBKTNV-0" />
        <mxCell id="WIyWlLk6GJQsqaUBKTNV-2" value="" style="rounded=0;html=1;jettySize=auto;orthogonalLoop=1;fontSize=11;endArrow=block;endFill=0;endSize=8;strokeWidth=1;shadow=0;labelBackgroundColor=none;edgeStyle=orthogonalEdgeStyle;" parent="WIyWlLk6GJQsqaUBKTNV-1" target="WIyWlLk6GJQsqaUBKTNV-6" edge="1">
          <mxGeometry relative="1" as="geometry">
            <mxPoint x="220" y="300" as="sourcePoint" />
          </mxGeometry>
        </mxCell>
        <mxCell id="WIyWlLk6GJQsqaUBKTNV-4" value="no" style="rounded=0;html=1;jettySize=auto;orthogonalLoop=1;fontSize=11;endArrow=block;endFill=0;endSize=8;strokeWidth=1;shadow=0;labelBackgroundColor=none;edgeStyle=orthogonalEdgeStyle;" parent="WIyWlLk6GJQsqaUBKTNV-1" source="WIyWlLk6GJQsqaUBKTNV-6" target="WIyWlLk6GJQsqaUBKTNV-10" edge="1">
          <mxGeometry y="20" relative="1" as="geometry">
            <mxPoint as="offset" />
          </mxGeometry>
        </mxCell>
        <mxCell id="WIyWlLk6GJQsqaUBKTNV-5" value="yes" style="edgeStyle=orthogonalEdgeStyle;rounded=0;html=1;jettySize=auto;orthogonalLoop=1;fontSize=11;endArrow=block;endFill=0;endSize=8;strokeWidth=1;shadow=0;labelBackgroundColor=none;" parent="WIyWlLk6GJQsqaUBKTNV-1" source="WIyWlLk6GJQsqaUBKTNV-6" target="WIyWlLk6GJQsqaUBKTNV-7" edge="1">
          <mxGeometry y="10" relative="1" as="geometry">
            <mxPoint as="offset" />
          </mxGeometry>
        </mxCell>
        <mxCell id="WIyWlLk6GJQsqaUBKTNV-6" value="is suit a Jack?" style="rhombus;whiteSpace=wrap;html=1;shadow=0;fontFamily=Helvetica;fontSize=12;align=center;strokeWidth=1;spacing=6;spacingTop=-4;" parent="WIyWlLk6GJQsqaUBKTNV-1" vertex="1">
          <mxGeometry x="170" y="350" width="100" height="80" as="geometry" />
        </mxCell>
        <mxCell id="WIyWlLk6GJQsqaUBKTNV-7" value="points is 11" style="rounded=1;whiteSpace=wrap;html=1;fontSize=12;glass=0;strokeWidth=1;shadow=0;" parent="WIyWlLk6GJQsqaUBKTNV-1" vertex="1">
          <mxGeometry x="320" y="370" width="120" height="40" as="geometry" />
        </mxCell>
        <mxCell id="WIyWlLk6GJQsqaUBKTNV-8" value="no" style="rounded=0;html=1;jettySize=auto;orthogonalLoop=1;fontSize=11;endArrow=block;endFill=0;endSize=8;strokeWidth=1;shadow=0;labelBackgroundColor=none;edgeStyle=orthogonalEdgeStyle;" parent="WIyWlLk6GJQsqaUBKTNV-1" source="WIyWlLk6GJQsqaUBKTNV-10" edge="1">
          <mxGeometry x="0.3333" y="20" relative="1" as="geometry">
            <mxPoint as="offset" />
            <mxPoint x="220" y="610" as="targetPoint" />
          </mxGeometry>
        </mxCell>
        <mxCell id="WIyWlLk6GJQsqaUBKTNV-9" value="Yes" style="edgeStyle=orthogonalEdgeStyle;rounded=0;html=1;jettySize=auto;orthogonalLoop=1;fontSize=11;endArrow=block;endFill=0;endSize=8;strokeWidth=1;shadow=0;labelBackgroundColor=none;" parent="WIyWlLk6GJQsqaUBKTNV-1" source="WIyWlLk6GJQsqaUBKTNV-10" target="WIyWlLk6GJQsqaUBKTNV-12" edge="1">
          <mxGeometry y="10" relative="1" as="geometry">
            <mxPoint as="offset" />
          </mxGeometry>
        </mxCell>
        <mxCell id="WIyWlLk6GJQsqaUBKTNV-10" value="is suit a Queen?" style="rhombus;whiteSpace=wrap;html=1;shadow=0;fontFamily=Helvetica;fontSize=12;align=center;strokeWidth=1;spacing=6;spacingTop=-4;" parent="WIyWlLk6GJQsqaUBKTNV-1" vertex="1">
          <mxGeometry x="170" y="470" width="100" height="80" as="geometry" />
        </mxCell>
        <mxCell id="83AAqJwE5KzZNoNRaWJq-29" value="" style="edgeStyle=orthogonalEdgeStyle;rounded=0;orthogonalLoop=1;jettySize=auto;html=1;" edge="1" parent="WIyWlLk6GJQsqaUBKTNV-1" source="WIyWlLk6GJQsqaUBKTNV-12" target="83AAqJwE5KzZNoNRaWJq-28">
          <mxGeometry relative="1" as="geometry" />
        </mxCell>
        <mxCell id="WIyWlLk6GJQsqaUBKTNV-12" value="points is 12" style="rounded=1;whiteSpace=wrap;html=1;fontSize=12;glass=0;strokeWidth=1;shadow=0;" parent="WIyWlLk6GJQsqaUBKTNV-1" vertex="1">
          <mxGeometry x="320" y="490" width="120" height="40" as="geometry" />
        </mxCell>
        <mxCell id="83AAqJwE5KzZNoNRaWJq-2" value="" style="edgeStyle=orthogonalEdgeStyle;rounded=0;orthogonalLoop=1;jettySize=auto;html=1;" edge="1" parent="WIyWlLk6GJQsqaUBKTNV-1" source="83AAqJwE5KzZNoNRaWJq-0">
          <mxGeometry relative="1" as="geometry">
            <mxPoint x="219" y="260" as="targetPoint" />
          </mxGeometry>
        </mxCell>
        <mxCell id="83AAqJwE5KzZNoNRaWJq-0" value="card" style="shape=parallelogram;perimeter=parallelogramPerimeter;whiteSpace=wrap;html=1;fixedSize=1;" vertex="1" parent="WIyWlLk6GJQsqaUBKTNV-1">
          <mxGeometry x="159" y="160" width="120" height="60" as="geometry" />
        </mxCell>
        <mxCell id="83AAqJwE5KzZNoNRaWJq-4" value="start" style="ellipse;whiteSpace=wrap;html=1;" vertex="1" parent="WIyWlLk6GJQsqaUBKTNV-1">
          <mxGeometry x="159" y="260" width="110" height="40" as="geometry" />
        </mxCell>
        <mxCell id="83AAqJwE5KzZNoNRaWJq-8" value="no" style="rounded=0;html=1;jettySize=auto;orthogonalLoop=1;fontSize=11;endArrow=block;endFill=0;endSize=8;strokeWidth=1;shadow=0;labelBackgroundColor=none;edgeStyle=orthogonalEdgeStyle;" edge="1" parent="WIyWlLk6GJQsqaUBKTNV-1" source="83AAqJwE5KzZNoNRaWJq-10" target="83AAqJwE5KzZNoNRaWJq-13">
          <mxGeometry y="20" relative="1" as="geometry">
            <mxPoint as="offset" />
          </mxGeometry>
        </mxCell>
        <mxCell id="83AAqJwE5KzZNoNRaWJq-9" value="yes" style="edgeStyle=orthogonalEdgeStyle;rounded=0;html=1;jettySize=auto;orthogonalLoop=1;fontSize=11;endArrow=block;endFill=0;endSize=8;strokeWidth=1;shadow=0;labelBackgroundColor=none;" edge="1" parent="WIyWlLk6GJQsqaUBKTNV-1" source="83AAqJwE5KzZNoNRaWJq-10" target="83AAqJwE5KzZNoNRaWJq-11">
          <mxGeometry y="10" relative="1" as="geometry">
            <mxPoint as="offset" />
          </mxGeometry>
        </mxCell>
        <mxCell id="83AAqJwE5KzZNoNRaWJq-10" value="is suit a king?" style="rhombus;whiteSpace=wrap;html=1;shadow=0;fontFamily=Helvetica;fontSize=12;align=center;strokeWidth=1;spacing=6;spacingTop=-4;" vertex="1" parent="WIyWlLk6GJQsqaUBKTNV-1">
          <mxGeometry x="172" y="610" width="100" height="80" as="geometry" />
        </mxCell>
        <mxCell id="83AAqJwE5KzZNoNRaWJq-34" value="" style="edgeStyle=orthogonalEdgeStyle;rounded=0;orthogonalLoop=1;jettySize=auto;html=1;" edge="1" parent="WIyWlLk6GJQsqaUBKTNV-1" source="83AAqJwE5KzZNoNRaWJq-11" target="83AAqJwE5KzZNoNRaWJq-32">
          <mxGeometry relative="1" as="geometry" />
        </mxCell>
        <mxCell id="83AAqJwE5KzZNoNRaWJq-11" value="points is 13" style="rounded=1;whiteSpace=wrap;html=1;fontSize=12;glass=0;strokeWidth=1;shadow=0;" vertex="1" parent="WIyWlLk6GJQsqaUBKTNV-1">
          <mxGeometry x="322" y="630" width="120" height="40" as="geometry" />
        </mxCell>
        <mxCell id="83AAqJwE5KzZNoNRaWJq-12" value="Yes" style="edgeStyle=orthogonalEdgeStyle;rounded=0;html=1;jettySize=auto;orthogonalLoop=1;fontSize=11;endArrow=block;endFill=0;endSize=8;strokeWidth=1;shadow=0;labelBackgroundColor=none;" edge="1" parent="WIyWlLk6GJQsqaUBKTNV-1" source="83AAqJwE5KzZNoNRaWJq-13" target="83AAqJwE5KzZNoNRaWJq-14">
          <mxGeometry y="10" relative="1" as="geometry">
            <mxPoint as="offset" />
          </mxGeometry>
        </mxCell>
        <mxCell id="83AAqJwE5KzZNoNRaWJq-16" value="" style="edgeStyle=orthogonalEdgeStyle;rounded=0;orthogonalLoop=1;jettySize=auto;html=1;" edge="1" parent="WIyWlLk6GJQsqaUBKTNV-1" source="83AAqJwE5KzZNoNRaWJq-13">
          <mxGeometry relative="1" as="geometry">
            <mxPoint x="222" y="890" as="targetPoint" />
          </mxGeometry>
        </mxCell>
        <mxCell id="83AAqJwE5KzZNoNRaWJq-13" value="is suit a Ace" style="rhombus;whiteSpace=wrap;html=1;shadow=0;fontFamily=Helvetica;fontSize=12;align=center;strokeWidth=1;spacing=6;spacingTop=-4;" vertex="1" parent="WIyWlLk6GJQsqaUBKTNV-1">
          <mxGeometry x="172" y="730" width="100" height="80" as="geometry" />
        </mxCell>
        <mxCell id="83AAqJwE5KzZNoNRaWJq-37" value="" style="edgeStyle=orthogonalEdgeStyle;rounded=0;orthogonalLoop=1;jettySize=auto;html=1;" edge="1" parent="WIyWlLk6GJQsqaUBKTNV-1" source="83AAqJwE5KzZNoNRaWJq-14" target="83AAqJwE5KzZNoNRaWJq-35">
          <mxGeometry relative="1" as="geometry" />
        </mxCell>
        <mxCell id="83AAqJwE5KzZNoNRaWJq-14" value="points is 14" style="rounded=1;whiteSpace=wrap;html=1;fontSize=12;glass=0;strokeWidth=1;shadow=0;" vertex="1" parent="WIyWlLk6GJQsqaUBKTNV-1">
          <mxGeometry x="322" y="750" width="120" height="40" as="geometry" />
        </mxCell>
        <mxCell id="83AAqJwE5KzZNoNRaWJq-18" value="no" style="text;html=1;strokeColor=none;fillColor=none;align=center;verticalAlign=middle;whiteSpace=wrap;rounded=0;" vertex="1" parent="WIyWlLk6GJQsqaUBKTNV-1">
          <mxGeometry x="219" y="830" width="60" height="30" as="geometry" />
        </mxCell>
        <mxCell id="83AAqJwE5KzZNoNRaWJq-19" value="points equal rank" style="rounded=1;whiteSpace=wrap;html=1;" vertex="1" parent="WIyWlLk6GJQsqaUBKTNV-1">
          <mxGeometry x="162" y="890" width="120" height="60" as="geometry" />
        </mxCell>
        <mxCell id="83AAqJwE5KzZNoNRaWJq-23" value="" style="edgeStyle=orthogonalEdgeStyle;rounded=0;orthogonalLoop=1;jettySize=auto;html=1;" edge="1" parent="WIyWlLk6GJQsqaUBKTNV-1" source="83AAqJwE5KzZNoNRaWJq-21" target="83AAqJwE5KzZNoNRaWJq-22">
          <mxGeometry relative="1" as="geometry" />
        </mxCell>
        <mxCell id="83AAqJwE5KzZNoNRaWJq-21" value="end" style="ellipse;whiteSpace=wrap;html=1;" vertex="1" parent="WIyWlLk6GJQsqaUBKTNV-1">
          <mxGeometry x="167.75" y="1030" width="108.5" height="30" as="geometry" />
        </mxCell>
        <mxCell id="83AAqJwE5KzZNoNRaWJq-22" value="points" style="shape=parallelogram;perimeter=parallelogramPerimeter;whiteSpace=wrap;html=1;fixedSize=1;" vertex="1" parent="WIyWlLk6GJQsqaUBKTNV-1">
          <mxGeometry x="162" y="1075" width="120" height="60" as="geometry" />
        </mxCell>
        <mxCell id="83AAqJwE5KzZNoNRaWJq-24" value="" style="ellipse;whiteSpace=wrap;html=1;aspect=fixed;" vertex="1" parent="WIyWlLk6GJQsqaUBKTNV-1">
          <mxGeometry x="207" y="980" width="30" height="30" as="geometry" />
        </mxCell>
        <mxCell id="83AAqJwE5KzZNoNRaWJq-25" value="" style="endArrow=classic;html=1;rounded=0;exitX=0.5;exitY=1;exitDx=0;exitDy=0;" edge="1" parent="WIyWlLk6GJQsqaUBKTNV-1" source="83AAqJwE5KzZNoNRaWJq-24">
          <mxGeometry width="50" height="50" relative="1" as="geometry">
            <mxPoint x="222" y="1020" as="sourcePoint" />
            <mxPoint x="221.5" y="1030" as="targetPoint" />
          </mxGeometry>
        </mxCell>
        <mxCell id="83AAqJwE5KzZNoNRaWJq-26" value="" style="endArrow=classic;html=1;rounded=0;" edge="1" parent="WIyWlLk6GJQsqaUBKTNV-1">
          <mxGeometry width="50" height="50" relative="1" as="geometry">
            <mxPoint x="220" y="951" as="sourcePoint" />
            <mxPoint x="220" y="981" as="targetPoint" />
          </mxGeometry>
        </mxCell>
        <mxCell id="83AAqJwE5KzZNoNRaWJq-27" value="" style="endArrow=classic;html=1;rounded=0;" edge="1" parent="WIyWlLk6GJQsqaUBKTNV-1" target="83AAqJwE5KzZNoNRaWJq-28">
          <mxGeometry width="50" height="50" relative="1" as="geometry">
            <mxPoint x="440" y="389.5" as="sourcePoint" />
            <mxPoint x="580" y="390" as="targetPoint" />
            <Array as="points">
              <mxPoint x="560" y="390" />
            </Array>
          </mxGeometry>
        </mxCell>
        <mxCell id="83AAqJwE5KzZNoNRaWJq-31" value="" style="edgeStyle=orthogonalEdgeStyle;rounded=0;orthogonalLoop=1;jettySize=auto;html=1;" edge="1" parent="WIyWlLk6GJQsqaUBKTNV-1" source="83AAqJwE5KzZNoNRaWJq-28">
          <mxGeometry relative="1" as="geometry">
            <mxPoint x="559" y="630" as="targetPoint" />
          </mxGeometry>
        </mxCell>
        <mxCell id="83AAqJwE5KzZNoNRaWJq-33" value="" style="edgeStyle=orthogonalEdgeStyle;rounded=0;orthogonalLoop=1;jettySize=auto;html=1;" edge="1" parent="WIyWlLk6GJQsqaUBKTNV-1" source="83AAqJwE5KzZNoNRaWJq-28" target="83AAqJwE5KzZNoNRaWJq-32">
          <mxGeometry relative="1" as="geometry" />
        </mxCell>
        <mxCell id="83AAqJwE5KzZNoNRaWJq-28" value="" style="ellipse;whiteSpace=wrap;html=1;aspect=fixed;" vertex="1" parent="WIyWlLk6GJQsqaUBKTNV-1">
          <mxGeometry x="544" y="495" width="30" height="30" as="geometry" />
        </mxCell>
        <mxCell id="83AAqJwE5KzZNoNRaWJq-36" value="" style="edgeStyle=orthogonalEdgeStyle;rounded=0;orthogonalLoop=1;jettySize=auto;html=1;" edge="1" parent="WIyWlLk6GJQsqaUBKTNV-1" source="83AAqJwE5KzZNoNRaWJq-32" target="83AAqJwE5KzZNoNRaWJq-35">
          <mxGeometry relative="1" as="geometry" />
        </mxCell>
        <mxCell id="83AAqJwE5KzZNoNRaWJq-32" value="" style="ellipse;whiteSpace=wrap;html=1;aspect=fixed;" vertex="1" parent="WIyWlLk6GJQsqaUBKTNV-1">
          <mxGeometry x="544" y="630" width="30" height="30" as="geometry" />
        </mxCell>
        <mxCell id="83AAqJwE5KzZNoNRaWJq-41" value="" style="edgeStyle=orthogonalEdgeStyle;rounded=0;orthogonalLoop=1;jettySize=auto;html=1;entryX=1;entryY=0.5;entryDx=0;entryDy=0;" edge="1" parent="WIyWlLk6GJQsqaUBKTNV-1" source="83AAqJwE5KzZNoNRaWJq-35" target="83AAqJwE5KzZNoNRaWJq-24">
          <mxGeometry relative="1" as="geometry">
            <mxPoint x="530" y="1080" as="targetPoint" />
            <Array as="points">
              <mxPoint x="559" y="1000" />
              <mxPoint x="282" y="1000" />
              <mxPoint x="282" y="995" />
            </Array>
          </mxGeometry>
        </mxCell>
        <mxCell id="83AAqJwE5KzZNoNRaWJq-35" value="" style="ellipse;whiteSpace=wrap;html=1;" vertex="1" parent="WIyWlLk6GJQsqaUBKTNV-1">
          <mxGeometry x="543" y="752" width="31" height="35" as="geometry" />
        </mxCell>
      </root>
    </mxGraphModel>
  </diagram>
</mxfile>
